<svg fill="none" height="257" viewBox="0 0 869 257" width="869" xmlns="http://www.w3.org/2000/svg">
    <g filter="url(#filter0_d_208_125)">
        <rect fill="black" height="113.383" rx="20.9968" width="724.391" x="72.3337" y="33.1368" />
        <rect fill="black" height="50.3924" transform="translate(103.829 64.6321)"
            width="50.3924" />
        <path
            d="M148.512 103.316C147.781 105.004 146.917 106.557 145.915 107.985C144.55 109.931 143.432 111.279 142.571 112.027C141.235 113.255 139.804 113.884 138.272 113.92C137.172 113.92 135.846 113.607 134.301 112.972C132.752 112.34 131.328 112.027 130.027 112.027C128.661 112.027 127.197 112.34 125.631 112.972C124.062 113.607 122.799 113.938 121.833 113.97C120.363 114.033 118.899 113.386 117.437 112.027C116.504 111.213 115.337 109.818 113.939 107.841C112.439 105.731 111.206 103.284 110.24 100.493C109.205 97.4798 108.686 94.5614 108.686 91.7361C108.686 88.4997 109.385 85.7083 110.786 83.3692C111.887 81.4903 113.352 80.0082 115.185 78.9201C117.018 77.8321 118.998 77.2776 121.131 77.2422C122.298 77.2422 123.828 77.6031 125.73 78.3126C127.627 79.0245 128.844 79.3854 129.378 79.3854C129.778 79.3854 131.13 78.9633 133.424 78.1218C135.592 77.3414 137.422 77.0183 138.922 77.1456C142.985 77.4735 146.037 79.0751 148.067 81.9607C144.434 84.1624 142.636 87.2462 142.672 91.2022C142.705 94.2836 143.823 96.8478 146.019 98.8838C147.015 99.8287 148.127 100.559 149.364 101.078C149.096 101.856 148.813 102.601 148.512 103.316ZM139.193 66.6479C139.193 69.0631 138.311 71.3181 136.552 73.4054C134.43 75.8867 131.862 77.3206 129.078 77.0943C129.043 76.8046 129.022 76.4996 129.022 76.1791C129.022 73.8606 130.032 71.3792 131.824 69.3504C132.719 68.3232 133.857 67.4691 135.237 66.7877C136.615 66.1165 137.917 65.7453 139.142 65.6818C139.178 66.0046 139.193 66.3275 139.193 66.6479V66.6479Z"
            fill="white" />
        <path
            d="M200.931 105.124C207.739 105.124 212.373 101.536 213.501 95.4255H208.928C208.005 98.9933 205.073 101.105 200.952 101.105C195.518 101.105 192.073 96.7378 192.073 89.8277C192.073 82.9791 195.559 78.5706 200.931 78.5706C204.95 78.5706 208.108 81.0516 208.928 84.845H213.48C212.701 78.6731 207.636 74.5516 200.931 74.5516C192.668 74.5516 187.378 80.457 187.378 89.8277C187.378 99.2598 192.627 105.124 200.931 105.124ZM226.378 105.042C232.549 105.042 236.609 100.798 236.609 93.8466C236.609 86.916 232.529 82.6715 226.378 82.6715C220.226 82.6715 216.146 86.916 216.146 93.8466C216.146 100.798 220.206 105.042 226.378 105.042ZM226.378 101.392C222.912 101.392 220.657 98.6447 220.657 93.8466C220.657 89.069 222.912 86.3214 226.378 86.3214C229.843 86.3214 232.098 89.069 232.098 93.8466C232.098 98.6447 229.863 101.392 226.378 101.392ZM240.034 104.632H244.463V92.0627C244.463 88.7204 246.472 86.5059 249.589 86.5059C252.665 86.5059 254.182 88.2898 254.182 91.5296V104.632H258.631V90.6684C258.631 85.7267 255.904 82.692 251.147 82.692C247.825 82.692 245.529 84.2094 244.36 86.6699H244.258V83.0611H240.034V104.632ZM264.209 77.9554V83.0611H261.072V86.5674H264.209V98.9523C264.209 103.115 265.911 104.776 270.278 104.776C271.262 104.776 272.247 104.694 272.739 104.571V101.064C272.452 101.126 271.734 101.167 271.283 101.167C269.478 101.167 268.658 100.326 268.658 98.4602V86.5674H272.759V83.0611H268.658V77.9554H264.209ZM278.767 79.5753C280.182 79.5753 281.31 78.427 281.31 77.0327C281.31 75.6179 280.182 74.4901 278.767 74.4901C277.352 74.4901 276.204 75.6179 276.204 77.0327C276.204 78.427 277.352 79.5753 278.767 79.5753ZM276.553 104.632H280.982V83.0611H276.553V104.632ZM285.513 104.632H289.942V92.0627C289.942 88.7204 291.952 86.5059 295.068 86.5059C298.144 86.5059 299.661 88.2898 299.661 91.5296V104.632H304.111V90.6684C304.111 85.7267 301.384 82.692 296.627 82.692C293.305 82.692 291.008 84.2094 289.84 86.6699H289.737V83.0611H285.513V104.632ZM326.892 83.0611H322.463V95.6305C322.463 98.9933 320.535 101.208 317.337 101.208C314.281 101.208 312.723 99.4444 312.723 96.1636V83.0611H308.294V97.0248C308.294 101.966 311.165 105.022 315.86 105.022C319.161 105.022 321.355 103.566 322.545 100.982H322.647V104.632H326.892V83.0611ZM345.572 98.2961C344.977 100.183 343.111 101.454 340.589 101.454C337.042 101.454 334.786 98.9728 334.786 95.2204V94.9538H350.021V93.4365C350.021 86.8955 346.289 82.6715 340.302 82.6715C334.212 82.6715 330.316 87.1826 330.316 93.9491C330.316 100.757 334.15 105.042 340.486 105.042C345.428 105.042 349.16 102.233 349.775 98.2961H345.572ZM340.302 86.2393C343.398 86.2393 345.49 88.5564 345.592 91.8576H334.807C335.032 88.5974 337.206 86.2393 340.302 86.2393ZM390.456 83.0611H386.068L382.131 100.039H382.029L377.518 83.0611H373.253L368.762 100.039H368.68L364.743 83.0611H360.314L366.24 104.632H370.813L375.303 88.4744H375.406L379.937 104.632H384.551L390.456 83.0611ZM395.521 79.5753C396.936 79.5753 398.064 78.427 398.064 77.0327C398.064 75.6179 396.936 74.4901 395.521 74.4901C394.106 74.4901 392.958 75.6179 392.958 77.0327C392.958 78.427 394.106 79.5753 395.521 79.5753ZM393.307 104.632H397.736V83.0611H393.307V104.632ZM403.559 77.9554V83.0611H400.422V86.5674H403.559V98.9523C403.559 103.115 405.261 104.776 409.628 104.776C410.613 104.776 411.597 104.694 412.089 104.571V101.064C411.802 101.126 411.084 101.167 410.633 101.167C408.829 101.167 408.008 100.326 408.008 98.4602V86.5674H412.109V83.0611H408.008V77.9554H403.559ZM415.923 104.632H420.352V92.1652C420.352 88.7614 422.362 86.5059 425.642 86.5059C428.759 86.5059 430.359 88.4128 430.359 91.5911V104.632H434.808V90.7299C434.808 85.8498 431.978 82.692 427.242 82.692C423.961 82.692 421.603 84.1479 420.414 86.6699H420.311V75.0438H415.923V104.632ZM467.431 104.632H472.291L461.608 75.0438H456.646L445.963 104.632H450.74L453.447 96.6352H464.724L467.431 104.632ZM459.024 79.9649H459.147L463.556 92.9444H454.616L459.024 79.9649ZM486.254 82.7125C483.138 82.7125 480.657 84.2914 479.385 86.7725H479.303V83.0611H475.018V111.768H479.447V101.085H479.549C480.78 103.484 483.24 105.001 486.336 105.001C491.75 105.001 495.338 100.675 495.338 93.8466C495.338 87.0185 491.729 82.7125 486.254 82.7125ZM485.086 101.249C481.682 101.249 479.426 98.3371 479.426 93.8466C479.426 89.3971 481.702 86.4444 485.086 86.4444C488.592 86.4444 490.786 89.3356 490.786 93.8466C490.786 98.3781 488.592 101.249 485.086 101.249ZM509.999 82.7125C506.882 82.7125 504.401 84.2914 503.13 86.7725H503.048V83.0611H498.762V111.768H503.191V101.085H503.294C504.524 103.484 506.985 105.001 510.081 105.001C515.494 105.001 519.083 100.675 519.083 93.8466C519.083 87.0185 515.474 82.7125 509.999 82.7125ZM508.83 101.249C505.426 101.249 503.171 98.3371 503.171 93.8466C503.171 89.3971 505.447 86.4444 508.83 86.4444C512.336 86.4444 514.53 89.3356 514.53 93.8466C514.53 98.3781 512.336 101.249 508.83 101.249ZM522.671 104.632H527.1V75.0438H522.671V104.632ZM545.944 98.2961C545.349 100.183 543.483 101.454 540.961 101.454C537.414 101.454 535.158 98.9728 535.158 95.2204V94.9538H550.393V93.4365C550.393 86.8955 546.661 82.6715 540.674 82.6715C534.584 82.6715 530.688 87.1826 530.688 93.9491C530.688 100.757 534.523 105.042 540.859 105.042C545.8 105.042 549.532 102.233 550.147 98.2961H545.944ZM540.674 86.2393C543.77 86.2393 545.862 88.5564 545.964 91.8576H535.179C535.404 88.5974 537.578 86.2393 540.674 86.2393Z"
            fill="white" />
    </g>
    <defs>
        <filter color-interpolation-filters="sRGB" filterUnits="userSpaceOnUse" height="256.334" id="filter0_d_208_125" width="867.342"
            x="0.858116" y="0.148098">
            <feFlood flood-opacity="0" result="BackgroundImageFix" />
            <feColorMatrix in="SourceAlpha" result="hardAlpha"
                type="matrix" values="0 0 0 0 0 0 0 0 0 0 0 0 0 0 0 0 0 0 127 0" />
            <feOffset dy="38.4869" />
            <feGaussianBlur stdDeviation="35.7378" />
            <feColorMatrix type="matrix" values="0 0 0 0 0 0 0 0 0 0 0 0 0 0 0 0 0 0 0.07 0" />
            <feBlend in2="BackgroundImageFix" mode="normal" result="effect1_dropShadow_208_125" />
            <feBlend in="SourceGraphic" in2="effect1_dropShadow_208_125" mode="normal"
                result="shape" />
        </filter>
    </defs>
</svg>
